<?xml version="1.0" encoding="UTF-8" standalone="no"?>
<svg
   xmlns:dc="http://purl.org/dc/elements/1.1/"
   xmlns:cc="http://creativecommons.org/ns#"
   xmlns:rdf="http://www.w3.org/1999/02/22-rdf-syntax-ns#"
   xmlns:svg="http://www.w3.org/2000/svg"
   xmlns="http://www.w3.org/2000/svg"
   id="svg8"
   version="1.1"
   viewBox="0 0 213.79276 344.66388"
   height="344.66388mm"
   width="213.79276mm">
  <defs
     id="defs2" />
  <metadata
     id="metadata5">
    <rdf:RDF>
      <cc:Work
         rdf:about="">
        <dc:format>image/svg+xml</dc:format>
        <dc:type
           rdf:resource="http://purl.org/dc/dcmitype/StillImage" />
        <dc:title></dc:title>
      </cc:Work>
    </rdf:RDF>
  </metadata>
  <g
     transform="translate(-61.38523,-94.77767)"
     id="layer1">
    <path
       id="path29"
       d="m 167.2949,437.41306 c -2.1683,-10.84166 -5.01613,-20.15775 -7.61518,-24.91144 -2.822,-5.16148 -5.57648,-7.26285 -10.52193,-8.02708 -1.41461,-0.2186 -3.84202,-0.76584 -5.39424,-1.21608 -1.55222,-0.45024 -4.59984,-1.30016 -6.77249,-1.8887 -9.45971,-2.56251 -19.14247,-7.49694 -24.87519,-12.67666 -1.89548,-1.71263 -4.57939,-3.44366 -7.98364,-5.14919 -3.14283,-1.57454 -13.955978,-5.3887 -17.429108,-6.14782 -8.00278,-1.74916 -10.69899,-2.21827 -16.493739,-2.86976 -3.395486,-0.38175 -6.96736,-0.91967 -7.937499,-1.19539 -1.534061,-0.43599 12.232568,-0.50131 105.656946,-0.50131 93.42437,0 107.191,0.0653 105.65694,0.50131 -0.97014,0.27572 -4.54202,0.81364 -7.9375,1.19539 -5.79476,0.65149 -8.49096,1.1206 -16.49374,2.86976 -3.47313,0.75912 -14.28628,4.57328 -17.42911,6.14782 -3.40426,1.70553 -6.08816,3.43656 -7.98364,5.14919 -5.73272,5.17972 -15.41547,10.11415 -24.87519,12.67666 -2.17264,0.58854 -5.22026,1.43846 -6.77248,1.8887 -1.55223,0.45024 -3.97963,0.99748 -5.39424,1.21608 -4.94545,0.76423 -7.69993,2.8656 -10.52193,8.02708 -2.59905,4.75369 -5.44688,14.06978 -7.61518,24.91144 -0.22313,1.11566 -0.5084,2.02848 -0.63393,2.02848 -0.12553,0 -0.4108,-0.91282 -0.63393,-2.02848 z M 115.71817,421.9614 c 2.5e-4,-0.18433 0.40471,-2.00202 0.89879,-4.03931 2.10401,-8.67559 2.35514,-10.26244 2.20426,-13.9285 -0.12776,-3.10433 -0.2786,-3.79134 -1.24069,-5.65066 -0.60239,-1.16417 -2.04998,-3.38517 -3.21686,-4.93555 -1.16689,-1.55038 -2.06075,-2.87975 -1.98635,-2.95415 0.0744,-0.0744 2.00736,1.07954 4.29547,2.56432 5.31872,3.45136 7.94164,4.74562 14.03799,6.92691 6.3866,2.28516 6.60838,2.38511 6.43777,2.90145 -0.0925,0.27994 -1.26997,0.51241 -3.2909,0.64971 -7.52863,0.51151 -10.52146,2.57803 -13.61029,9.39774 -3.41363,7.53683 -3.98804,8.76364 -4.24583,9.06804 -0.17926,0.21166 -0.28365,0.21166 -0.28336,0 z m 103.01215,-2.16982 c -0.6268,-1.31926 -1.602,-3.50194 -2.16713,-4.8504 -1.30462,-3.11301 -3.17708,-6.46827 -4.26461,-7.64173 -2.09693,-2.26262 -5.36146,-3.46839 -10.29857,-3.80383 -2.02093,-0.1373 -3.19841,-0.36977 -3.29091,-0.64971 -0.1706,-0.51634 0.0512,-0.61629 6.43778,-2.90145 6.09634,-2.18129 8.71926,-3.47555 14.03798,-6.92691 2.2881,-1.48478 4.22106,-2.63872 4.29547,-2.56432 0.0744,0.0744 -0.81946,1.40377 -1.98635,2.95415 -3.54624,4.7117 -4.28206,6.45131 -4.46208,10.54903 -0.16126,3.67067 -0.10209,4.06102 1.92188,12.67934 0.67683,2.88203 1.15985,5.3108 1.07338,5.39727 -0.0865,0.0865 -0.67004,-0.92218 -1.29684,-2.24144 z M 63.885045,366.36531 c 1.374902,-2.74456 12.229477,-24.05675 24.121287,-47.36041 11.891813,-23.30366 22.742368,-44.608 24.112358,-47.34298 l 2.49089,-4.97268 -26.601558,-52.17731 -26.601562,-52.17732 53.43757,-0.0893 c 29.39067,-0.0491 77.48448,-0.0491 106.87515,0 l 53.43757,0.0893 -26.60157,52.17732 -26.60156,52.17731 2.49089,4.97268 c 1.36999,2.73498 12.22056,24.03932 24.11236,47.34298 11.89181,23.30366 22.74639,44.61585 24.12129,47.36041 l 2.49982,4.99012 H 168.28161 61.38523 Z m 99.810455,-3.31067 c 0,-0.2307 -44.94707,-88.33876 -45.01882,-88.24871 -0.20593,0.25848 -44.939518,88.1032 -44.939518,88.24912 0,0.10257 20.240623,0.18649 44.979158,0.18649 24.73855,0 44.97918,-0.0841 44.97918,-0.1869 z m 99.13054,3.6e-4 c 0,-0.14587 -44.73358,-87.99059 -44.93951,-88.24907 -0.0718,-0.0901 -45.01881,88.01801 -45.01881,88.24871 0,0.1028 20.24062,0.1869 44.97916,0.1869 24.73854,0 44.97916,-0.0839 44.97916,-0.18649 z m -71.77792,-51.72088 c 12.37865,-24.28047 22.50663,-44.34025 22.50663,-44.57729 0,-0.6147 -44.95948,-88.72361 -45.27314,-88.72361 -0.31367,0 -45.27315,88.10891 -45.27315,88.72361 0,0.61469 44.95948,88.7236 45.27315,88.7236 0.14293,0 10.38786,-19.86584 22.76651,-44.14631 z M 141.25197,214.6454 c 12.34394,-24.19865 22.44353,-44.08208 22.44353,-44.18542 0,-0.10333 -20.24063,-0.18787 -44.97918,-0.18787 -24.738535,0 -44.979158,0.0835 -44.979158,0.1855 0,0.22945 44.948158,88.33885 45.019698,88.24964 0.0284,-0.0354 10.15118,-19.86321 22.49511,-44.06185 z m 99.13012,-0.001 c 12.34417,-24.19938 22.44395,-44.08282 22.44395,-44.18539 0,-0.10257 -20.24062,-0.18649 -44.97916,-0.18649 -24.73854,0 -44.97916,0.0841 -44.97916,0.1869 0,0.2307 44.94706,88.33876 45.01881,88.24871 0.0284,-0.0356 10.15138,-19.8643 22.49556,-44.0637 z M 62.271884,160.88827 c 0.970139,-0.27572 4.542013,-0.81365 7.937499,-1.19539 5.794749,-0.65149 8.490959,-1.12061 16.493739,-2.86977 3.47313,-0.75912 14.286278,-4.57327 17.429108,-6.14782 3.40425,-1.70552 6.08816,-3.43655 7.98364,-5.14919 5.73272,-5.17971 15.41548,-10.11415 24.87519,-12.67665 2.17265,-0.58854 5.22027,-1.43846 6.77249,-1.8887 1.55222,-0.45024 3.97963,-0.99748 5.39424,-1.21608 4.94545,-0.76424 7.69993,-2.8656 10.52193,-8.02708 2.59905,-4.7537 5.44688,-14.06978 7.61518,-24.911448 0.22313,-1.115659 0.5084,-2.028472 0.63393,-2.028472 0.12553,0 0.4108,0.912813 0.63393,2.028472 2.1683,10.841668 5.01613,20.157748 7.61518,24.911448 2.822,5.16148 5.57648,7.26284 10.52193,8.02708 1.41461,0.2186 3.84201,0.76584 5.39424,1.21608 1.55222,0.45024 4.59984,1.30016 6.77248,1.8887 9.45972,2.5625 19.14247,7.49694 24.87519,12.67665 1.89548,1.71264 4.57938,3.44367 7.98364,5.14919 3.14283,1.57455 13.95598,5.3887 17.42911,6.14782 8.00278,1.74916 10.69898,2.21828 16.49374,2.86977 3.39548,0.38174 6.96736,0.91967 7.9375,1.19539 1.53406,0.43599 -12.23257,0.50131 -105.65694,0.50131 -93.424378,0 -107.191007,-0.0653 -105.656946,-0.50131 z m 50.648086,-18.15265 c 5.34033,-7.15777 5.70742,-7.93299 5.90625,-12.47282 0.16075,-3.67027 0.10129,-4.06241 -1.92235,-12.67935 -0.67683,-2.88202 -1.15985,-5.31079 -1.07339,-5.39726 0.17501,-0.175 1.89003,3.3362 3.46398,7.09184 1.30463,3.11301 3.17709,6.46827 4.26462,7.64173 2.09693,2.26262 5.36145,3.46839 10.29857,3.80383 2.02093,0.1373 3.19841,0.36977 3.2909,0.64971 0.17061,0.51634 -0.0512,0.61629 -6.43777,2.90144 -6.04183,2.16179 -8.76041,3.49575 -13.76797,6.75569 -4.74595,3.08964 -5.19907,3.2817 -4.02284,1.70519 z m 106.16346,-1.58561 c -5.18238,-3.3836 -7.83431,-4.69186 -13.93655,-6.87527 -6.38661,-2.28515 -6.60838,-2.3851 -6.43778,-2.90144 0.0925,-0.27994 1.26998,-0.51241 3.29091,-0.64971 4.93711,-0.33544 8.20164,-1.54121 10.29857,-3.80383 1.08753,-1.17346 2.95999,-4.52872 4.26461,-7.64173 1.57395,-3.75564 3.28897,-7.26684 3.46397,-7.09184 0.0865,0.0865 -0.39655,2.51524 -1.07338,5.39726 -2.02364,8.61694 -2.0831,9.00908 -1.92235,12.67935 0.19813,4.52396 0.62322,5.42379 5.85993,12.40445 0.47305,0.63059 0.72219,1.14289 0.55364,1.13844 -0.16855,-0.004 -2.13126,-1.19951 -4.36157,-2.65568 z"
       style="fill:#ffffff;stroke-width:0.35277775" />
  </g>
</svg>
